<svg xmlns="http://www.w3.org/2000/svg" viewBox="0 0 1200 760" role="img" aria-labelledby="t"><title id="t">Mar nocturno iluminado por nubes</title><defs><linearGradient id="sky" x2="0" y2="1"><stop stop-color="#253b4d"/><stop offset=".55" stop-color="#73808a"/><stop offset="1" stop-color="#d7cdbb"/></linearGradient><linearGradient id="sea" x2="0" y2="1"><stop stop-color="#35586d"/><stop offset="1" stop-color="#132e43"/></linearGradient></defs><rect width="1200" height="760" fill="url(#sky)"/><path d="M0 245c123-96 244-72 350 9 109-98 255-101 352 5 118-68 284-38 498 46v-305H0Z" fill="#27313a" opacity=".7"/><path d="M0 337c129-78 290-42 402 4 149-87 309-67 437 24 136-42 254-25 361 13v-112H0Z" fill="#4e5760" opacity=".75"/><path d="M0 400h1200v360H0Z" fill="url(#sea)"/><path d="M550 286c65 20 124 20 204-3l-65 289H605Z" fill="#fff5cd" opacity=".74"/><g stroke="#bcd2d9" opacity=".55"><path d="M0 496c184-33 354 16 542-1 176-16 375-71 658-19"/><path d="M0 555c178 29 360-41 570-8 215 33 376 30 630-5"/><path d="M0 650c234-45 432 36 661 2 175-25 324-21 539 19"/></g><circle cx="884" cy="130" r="35" fill="#e8e0c4" opacity=".75"/><text x="600" y="702" text-anchor="middle" fill="#e6eef0" font-family="Georgia,serif" font-size="31">VOCES DEL INSOMNIO 2026</text></svg>