<svg xmlns="http://www.w3.org/2000/svg" viewBox="0 0 1200 760" role="img" aria-labelledby="t"><title id="t">Mapa nocturno y constelaciones</title><rect width="1200" height="760" fill="#101d32"/><g fill="none" stroke="#c6d3db" stroke-width="2" opacity=".82"><path d="M95 166c132-91 274-63 385 10 126 83 248 46 361-55 86-77 177-68 274-8"/><path d="M77 538c117-125 246-151 384-80 145 74 292 37 398-72 98-101 192-99 269-27"/><path d="M176 31c-25 210 130 296 270 311 183 20 298 79 314 301"/><path d="M903 42c-129 142-84 265 68 354 106 62 128 171 27 309"/><path d="M112 341c138-71 223-56 310 27 102 96 251 109 363 18 120-98 258-97 387-16"/></g><g fill="#ead88d"><circle cx="151" cy="151" r="6"/><circle cx="274" cy="260" r="4"/><circle cx="388" cy="118" r="5"/><circle cx="504" cy="352" r="7"/><circle cx="643" cy="180" r="5"/><circle cx="789" cy="300" r="6"/><circle cx="939" cy="172" r="4"/><circle cx="1071" cy="298" r="7"/><circle cx="896" cy="562" r="5"/><circle cx="608" cy="618" r="6"/><circle cx="302" cy="581" r="5"/></g><g stroke="#ead88d" stroke-width="1.5" opacity=".75"><path d="M151 151 274 260 388 118 504 352 643 180 789 300 939 172 1071 298"/><path d="M302 581 608 618 896 562"/></g><path d="M0 651c236-43 433-17 617 31 194 51 358 17 583-45v123H0Z" fill="#0a1424"/><text x="600" y="708" text-anchor="middle" fill="#e6edf0" font-family="Georgia,serif" font-size="33">CARTOGRAFÍA DE UNA NOCHE LARGA</text></svg>