<svg xmlns="http://www.w3.org/2000/svg" viewBox="0 0 1200 760" role="img" aria-labelledby="t"><title id="t">Figura en tinta con trazos rojos</title><rect width="1200" height="760" fill="#f6f4ed"/><g opacity=".95"><path d="M-40 135 180 46l230 70-182 65-268 17Zm32 210 250-100 222 63-190 93-282-5Zm390-205 208-102 165 94-229 43Zm-100 340 300-114 252 90-260 120Z" fill="#8d2929"/><path d="M-38 185 153 141l176 66-210 62Zm467-25 194-82 176 107-241 21Zm-135 396 337-119 245 114-258 104Z" fill="#252323"/></g><g transform="translate(533 149)"><path d="M74 18c41 10 65 43 63 87-2 34-24 69-52 93 24 37 38 81 44 152l13 180H-41l20-176c7-68 24-112 48-149-33-25-57-67-51-108C-19 49 19 6 74 18Z" fill="#181719"/><ellipse cx="77" cy="94" rx="56" ry="68" fill="#f7f6f1"/><path d="M18 85c4-63 109-94 126 7-29-33-71-17-126-7Z" fill="#141315"/><path d="M21 131c39 20 89 18 117-4-21 38-83 58-117 4Z" fill="#141315"/><path d="M7 252c48 34 109 38 149 6l-7 40c-44 25-100 20-148-3Z" fill="#c4c0b9"/><path d="M-15 431c63 22 119 22 171-6l4 58H-27Z" fill="#232124"/></g><path d="M54 670c150-25 272-22 390 5m62-4c215-30 378-22 607 12" stroke="#171616" stroke-width="7" fill="none" opacity=".5"/></svg>