<svg xmlns="http://www.w3.org/2000/svg" viewBox="0 0 1000 450" role="img" aria-labelledby="t"><title id="t">Trazos rojos y negros</title><rect width="1000" height="450" fill="#f6f4ed"/><path d="M-20 70 280 5l89 88-292 62Zm411 42 230-70 133 101-261 48Zm-297 197 274-102 168 85-271 99Zm381 31 300-123 220 108-292 89Z" fill="#8d2929"/><path d="M80 124 318 65l169 113-296 54Zm436 19 260-54 118 91-248 76Z" fill="#1c1b1c"/><circle cx="503" cy="228" r="67" fill="#f7f6f1" stroke="#1c1b1c" stroke-width="12"/><path d="M457 291c29-54 75-53 96 0v104h-96Z" fill="#1c1b1c"/></svg>