<svg xmlns="http://www.w3.org/2000/svg" viewBox="0 0 1200 760" role="img" aria-labelledby="t"><title id="t">Espirales nocturnas en dorado</title><rect width="1200" height="760" fill="#102440"/><g fill="none" stroke="#c7a85d" stroke-width="16" opacity=".9"><path d="M599 370c-132-75-136-245-27-310 125-74 294 36 255 177-27 99-156 135-224 66-67-69-5-178 78-154 68 20 81 113 27 154-47 36-110-3-92-55 15-44 77-38 79 8"/><path d="M303 262c61-94 200-95 253-3 58 103-17 233-128 218-88-12-125-119-63-177 55-52 144-2 122 68-18 55-94 52-107 4"/><path d="M864 502c-1-113 141-166 224-86 90 88 29 242-95 238-101-3-145-127-80-191 55-54 145-7 125 64-17 59-101 52-111-3"/></g><g fill="#d7c078"><circle cx="95" cy="120" r="6"/><circle cx="182" cy="638" r="9"/><circle cx="1049" cy="118" r="7"/><circle cx="1101" cy="592" r="5"/><circle cx="170" cy="340" r="5"/><circle cx="979" cy="326" r="8"/></g><path d="M0 656c172-82 299-53 405 6 161 89 319 59 460-35 126-84 221-103 335-28v161H0Z" fill="#0b1a2f"/><text x="600" y="704" text-anchor="middle" fill="#e7d59d" font-family="Georgia,serif" font-size="33" letter-spacing="3">VOCES DEL INSOMNIO</text></svg>