<svg xmlns="http://www.w3.org/2000/svg" viewBox="0 0 1200 760" role="img" aria-labelledby="t"><title id="t">Figura roja abstracta sobre negro</title><rect width="1200" height="760" fill="#090909"/><path d="M654 63c118 38 173 150 133 250-25 62-97 112-137 158 42 61 55 138 46 228H370c-16-110 9-194 63-264-62-64-96-165-60-251 40-96 170-148 281-61Z" fill="#e63136"/><path d="M643 124c-59-2-112 42-119 104-8 69 45 132 119 140 73 8 139-46 145-118 7-72-54-124-145-126Z" fill="#0a0a0a"/><path d="M590 138c-49 33-63 89-27 142m58-138c53 29 78 88 56 137" stroke="#f3eee5" stroke-width="4" fill="none"/><path d="M260 84v594M941 84v594" stroke="#f3eee5" stroke-width="2" opacity=".8"/><path d="M115 182 1072 581M119 590 1081 177" stroke="#f3eee5" stroke-width="1.5" opacity=".55"/><circle cx="640" cy="250" r="10" fill="#f3eee5"/><text x="600" y="724" text-anchor="middle" fill="#f3eee5" font-family="Arial,sans-serif" font-size="17" letter-spacing="6">CUERPOS / DELITO</text></svg>