<svg xmlns="http://www.w3.org/2000/svg" viewBox="0 0 1200 760" role="img" aria-labelledby="t"><title id="t">Fachadas antiguas junto al mar bajo un cielo rosado</title><defs><linearGradient id="sky" x2="0" y2="1"><stop stop-color="#bd7d7d"/><stop offset="1" stop-color="#e7b6ac"/></linearGradient></defs><rect width="1200" height="760" fill="url(#sky)"/><path d="M0 412h1200v348H0Z" fill="#655c68"/><path d="M0 545c154-31 308-29 460-6 196 29 474 3 740 39v182H0Z" fill="#d8c4b6"/><g stroke="#444148" stroke-width="7"><path d="M123 426V210h168v219" fill="#e7ded4"/><path d="M311 426V157h254v269" fill="#c9c3bd"/><path d="M574 426V245h201v181" fill="#dbd3ca"/><path d="M781 426V302h276v124" fill="#c3beb9"/></g><g fill="#4d5960"><rect x="157" y="251" width="35" height="80"/><rect x="218" y="255" width="35" height="80"/><rect x="347" y="209" width="47" height="100"/><rect x="438" y="196" width="47" height="100"/><rect x="615" y="283" width="38" height="85"/><rect x="691" y="281" width="38" height="85"/><rect x="837" y="337" width="39" height="65"/><rect x="941" y="337" width="39" height="65"/></g><g stroke="#3c383e" stroke-width="5"><path d="M0 462h1200"/><path d="M103 492h985"/><path d="M70 562c32-57 81-70 123 0m24 0c31-56 80-70 122 0m35 0c31-56 80-70 122 0m39 0c31-56 80-70 122 0m36 0c31-56 80-70 122 0m34 0c31-56 80-70 122 0" fill="none"/></g><text x="600" y="704" text-anchor="middle" fill="#342f34" font-family="Georgia,serif" font-size="34">CUBA, EL DONBÁS DEL CARIBE</text></svg>