<svg xmlns="http://www.w3.org/2000/svg" viewBox="0 0 1000 450" role="img" aria-labelledby="t"><title id="t">Fachada y ventanas encendidas</title><rect width="1000" height="450" fill="#ba8385"/><path d="M80 393V117h182v276m17 0V66h226v327m20 0V150h198v243m18 0V212h201v181" fill="#d9d2c9" stroke="#4c4750" stroke-width="6"/><g fill="#514f58"><rect x="119" y="178" width="33" height="70"/><rect x="190" y="178" width="33" height="70"/><rect x="322" y="130" width="39" height="88"/><rect x="419" y="128" width="39" height="88"/><rect x="548" y="212" width="38" height="73"/><rect x="638" y="212" width="38" height="73"/><rect x="776" y="260" width="36" height="66"/><rect x="875" y="260" width="36" height="66"/></g><rect x="322" y="130" width="39" height="88" fill="#d0a55c" opacity=".9"/><path d="M0 394h1000" stroke="#544b52" stroke-width="12"/></svg>